<svg width="484" height="543" viewBox="0 0 484 543" fill="none" xmlns="http://www.w3.org/2000/svg">
<path d="M58.703 70.5661C155.503 74.3934 245.993 25.1167 279.139 0L335.446 74.1542C267.398 121.996 198.472 141.132 173.713 143.524C241.76 177.97 368.99 185.385 440.871 177.013L480.406 254.756C443.028 285.374 329.056 315.355 286.327 330.106C315.079 332.976 415.713 337.282 484 324.126V526.255L0 543V421.004L190.485 418.612C160.774 417.656 51.1155 375.954 0 355.222V243.991C64.2139 255.473 194.479 248.775 251.584 243.991C186.412 246.862 71.8812 186.183 22.7624 155.485L58.703 70.5661Z" fill="#FFC1B4"/>
</svg>
