<svg width="23" height="16" viewBox="0 0 23 16" fill="none" xmlns="http://www.w3.org/2000/svg">
<path d="M0 2.99976C0 1.62085 1.11806 0.499756 2.49322 0.499756H12.4661C13.8413 0.499756 14.9593 1.62085 14.9593 2.99976V12.9998C14.9593 14.3787 13.8413 15.4998 12.4661 15.4998H2.49322C1.11806 15.4998 0 14.3787 0 12.9998V2.99976ZM21.7807 1.89819C22.1858 2.11694 22.439 2.53882 22.439 2.99976V12.9998C22.439 13.4607 22.1858 13.8826 21.7807 14.1013C21.3755 14.3201 20.8847 14.2966 20.499 14.0388L16.7591 11.5388L16.206 11.1677V10.4998V5.49976V4.83179L16.7591 4.46069L20.499 1.96069C20.8808 1.70679 21.3716 1.67944 21.7807 1.89819Z" fill="white"/>
</svg>
