<?xml version="1.0" encoding="UTF-8" standalone="no"?>
<svg
   version="1.1"
   id="Layer_1"
   x="0px"
   y="0px"
   width="848.25482"
   viewBox="0 0 848.25482 153.27441"
   enable-background="new 0 0 1200 1200"
   xml:space="preserve"
   sodipodi:docname="revive-hypnosis-logo.svg"
   height="153.27441"
   inkscape:version="1.3.1 (9b9bdc1480, 2023-11-25, custom)"
   xmlns:inkscape="http://www.inkscape.org/namespaces/inkscape"
   xmlns:sodipodi="http://sodipodi.sourceforge.net/DTD/sodipodi-0.dtd"
   xmlns="http://www.w3.org/2000/svg"
   xmlns:svg="http://www.w3.org/2000/svg"><defs
   id="defs34" /><sodipodi:namedview
   id="namedview34"
   pagecolor="#505050"
   bordercolor="#ffffff"
   borderopacity="1"
   inkscape:showpageshadow="0"
   inkscape:pageopacity="0"
   inkscape:pagecheckerboard="1"
   inkscape:deskcolor="#505050"
   inkscape:zoom="0.98"
   inkscape:cx="424.4898"
   inkscape:cy="75.510204"
   inkscape:window-width="2501"
   inkscape:window-height="1376"
   inkscape:window-x="0"
   inkscape:window-y="0"
   inkscape:window-maximized="1"
   inkscape:current-layer="Layer_1" />

<path
   fill="#4C1950"
   opacity="1"
   stroke="none"
   d="m 500.81434,95.057985 c 0.15662,-18.22455 0.15662,-36.03473 0.15662,-54.15875 -1.58447,-0.4394 -3.07324,-0.8523 -4.56201,-1.2652 0.0212,-0.28412 0.0424,-0.56824 0.0637,-0.85236 8.39227,0 16.78448,0 25.17675,0 -4.83856,1.23603 -3.80529,5.11762 -3.82312,8.48663 -0.0255,4.83063 0.12366,9.66547 -0.0317,14.49103 -0.0997,3.09546 0.8153,4.55024 4.20538,4.47614 15.24762,-0.33307 12.03607,1.93878 12.39893,-11.74353 0.0706,-2.66327 0.3468,-5.38983 -0.0992,-7.97913 -0.46252,-2.68512 -1.68731,-5.23895 -2.59161,-7.88812 7.09479,0 15.56457,0 24.0343,0 0.0386,0.2583 0.0773,0.5166 0.11591,0.7749 -1.46057,0.46948 -2.92108,0.93891 -4.513,1.45056 0,18.2146 0,36.3321 0,54.60376 1.56286,0.39948 2.95025,0.75409 4.33758,1.10871 -0.0185,0.28228 -0.037,0.56457 -0.0555,0.84686 -8.56323,0 -17.12652,0 -25.68976,0 4.88648,-0.80951 4.6546,-4.21338 4.55793,-7.8653 -0.17933,-6.77008 -0.0514,-13.54828 -0.0514,-20.61248 -5.76294,0 -10.83124,0 -16.24811,0 0,8.83514 0,17.42138 0,26.42236 1.29981,0.43402 2.74958,0.91809 4.19935,1.40216 -0.0316,0.26715 -0.0632,0.53436 -0.0949,0.80151 -8.59748,0 -17.19501,0 -25.79248,0 -0.0483,-0.21081 -0.0967,-0.42157 -0.14509,-0.63238 1.43165,-0.48438 2.86329,-0.96875 4.45154,-1.86737 z"
   id="path2" />
<path
   fill="#4C1950"
   opacity="1"
   stroke="none"
   d="m 227.4167,65.670715 c -3.1e-4,-8.46643 -3.1e-4,-16.43286 -3.1e-4,-24.5379 -1.9118,-0.48462 -3.38791,-0.85871 -4.86401,-1.23285 0.0158,-0.41291 0.0315,-0.82581 0.0472,-1.23871 2.67227,0 5.34516,-0.0373 8.01669,0.007 9.98349,0.16413 20.01569,-0.19354 29.93549,0.69501 9.30249,0.83313 12.87613,4.70221 13.41513,11.97839 0.64447,8.69977 -2.24606,12.74292 -12.33423,16.0069 10.93616,2.75769 10.46347,10.83325 10.3775,18.72754 -0.0127,1.1654 -0.2438,2.4198 0.10434,3.4754 0.47037,1.42609 1.40363,2.69953 2.13825,4.03851 1.08304,-1.02673 2.33649,-1.93035 3.1951,-3.1192 0.68466,-0.94787 0.88797,-2.24347 1.64236,-4.30798 0.66617,8.56799 -2.54535,12.46704 -9.61062,12.8645 -10.31138,0.57996 -14.50007,-3.09289 -15.05893,-13.34515 -0.17209,-3.15656 -0.0382,-6.32861 -0.13556,-9.49079 -0.22135,-7.18811 -2.02664,-8.6043 -9.75855,-7.39904 0,8.98663 0,18.0401 0,27.36218 1.67069,0.28821 3.24161,0.55927 4.81256,0.83026 -0.008,0.26361 -0.0161,0.52728 -0.0242,0.79089 -8.86123,0 -17.7225,0 -26.58374,0 -0.0604,-0.21685 -0.12069,-0.43377 -0.18103,-0.65063 1.43973,-0.31891 2.87946,-0.63776 4.86685,-1.07794 0,-9.98291 0,-19.92945 -3e-4,-30.37604 m 28.84738,-13.46814 c -0.25827,-10.43732 -2.91528,-12.96393 -11.80032,-11.03436 0,8.31842 0,16.66803 0,24.98486 8.77734,0.6991 11.53769,-2.44708 11.80032,-13.9505 z"
   id="path3" />
<path
   fill="#4C1950"
   opacity="1"
   stroke="none"
   d="m 602.04872,57.985535 c 6.04248,-0.1272 12.0849,-0.2544 18.6839,-0.13208 0.70678,0.46631 0.89581,0.64111 1.12359,0.77393 0.14612,1.11956 0.2923,2.23913 0.52423,4.01592 4.33631,-6.091 9.94074,-7.14581 16.17646,-5.2832 6.64843,1.98603 9.13794,7.44788 9.97467,13.64557 0.55066,4.07849 0.74005,8.34296 0.20135,12.40619 -1.7832,13.44983 -13.10266,19.020395 -26.24011,12.85883 0,6.647765 0,13.136355 0,20.110355 3.37042,0.15771 6.68903,0.31305 10.00757,0.46832 -0.0123,0.32397 -0.0245,0.64789 -0.0369,0.97186 -10.07299,0 -20.14605,0 -30.21911,0 -0.0723,-0.17028 -0.14453,-0.34051 -0.2168,-0.5108 1.23212,-0.3913 2.46429,-0.78253 4.19525,-1.33228 0,-8.11779 0.002,-16.402405 -6.1e-4,-24.686955 -0.003,-9.47815 -0.0707,-18.95697 0.0224,-28.43414 0.0248,-2.53131 -0.42468,-4.27661 -3.79993,-4.40668 -0.38903,-0.26758 -0.39599,-0.46484 -0.39599,-0.46484 m 20.06763,21.19177 c 0.16589,3.97254 -0.22028,8.0824 0.71984,11.86237 0.50483,2.02997 3.28791,3.49341 5.04291,5.21246 1.39166,-1.84601 3.86432,-3.62323 3.98676,-5.54993 0.51391,-8.08642 0.54596,-16.22601 0.23443,-24.32611 -0.0763,-1.98535 -2.11749,-3.8952 -3.25525,-5.83978 -1.92016,1.76862 -4.89819,3.22632 -5.52942,5.37378 -1.14001,3.87848 -0.87744,8.16925 -1.19927,13.26721 z"
   id="path4" />
<path
   fill="#4C1950"
   opacity="1"
   stroke="none"
   d="m 668.8885,98.052795 c -5.75012,-4.9e-4 -11.02917,-4.9e-4 -15.22461,-4.9e-4 0.95838,-2.88263 2.47357,-5.46429 2.57141,-8.09857 0.31513,-8.48511 0.27454,-16.99536 -0.0123,-25.48297 -0.0742,-2.19489 -1.55255,-4.34235 -2.60302,-7.07666 4.93499,0 11.08355,-0.1557 17.20642,0.17108 0.89929,0.048 1.67627,2.38788 1.92645,2.77191 4.33197,-1.26721 8.40912,-3.24939 12.59497,-3.51428 7.90039,-0.50031 12.45911,4.07629 12.67096,12.08777 0.23303,8.80652 0.0532,17.6239 0.0532,26.50641 1.79816,0.49725 3.17133,0.87701 4.5445,1.25671 -0.0187,0.27155 -0.0375,0.54303 -0.0563,0.81458 -7.68036,0 -15.36078,0 -22.32709,0 0.66169,-2.03956 1.85736,-4.09034 1.90827,-6.16913 0.20361,-8.32489 0.20099,-16.66358 -0.0836,-24.98487 -0.0633,-1.8518 -1.58197,-3.6538 -2.43066,-5.47876 -1.78119,1.28241 -4.30573,2.19593 -5.16834,3.93415 -1.27679,2.57263 -1.75757,5.71313 -1.89221,8.64337 -0.26728,5.81872 -0.26569,11.66943 0.0414,17.48486 0.11603,2.19684 1.38452,4.33277 2.34711,7.13538 -1.42835,0 -3.51184,0 -6.06647,-4.9e-4 z"
   id="path5" />
<path
   fill="#4C1950"
   opacity="1"
   stroke="none"
   d="m 742.04707,93.646485 c -6.6571,6.694155 -22.85522,6.07422 -29.08246,1.97974 -6.95428,-4.57251 -10.065,-14.09369 -7.70971,-24.13093 1.98193,-8.44622 8.34906,-13.87481 17.39733,-14.68579 2.31403,-0.20733 4.66425,-0.19 6.98822,-0.0773 10.35797,0.50196 16.42444,5.84003 17.80976,16.05487 1.01312,7.46979 0.19806,14.65064 -5.40314,20.85944 m -10.96411,-28.0368 c -0.63483,-3.15424 -0.31177,-7.383 -5.12732,-7.03138 -4.4483,0.32483 -4.55908,4.42627 -4.7345,7.62604 -0.32733,5.97125 -0.29681,11.97314 -0.14441,17.95532 0.0838,3.28961 0.37378,6.66437 1.27466,9.7984 0.36334,1.26416 2.61792,2.75794 3.99311,2.73963 1.36175,-0.0181 3.11352,-1.55695 3.93048,-2.89502 0.79388,-1.30023 0.81921,-3.19025 0.83465,-4.82459 0.0709,-7.48303 0.0199,-14.96716 -0.0267,-23.3684 z"
   id="path6" />
<path
   fill="#4C1950"
   opacity="1"
   stroke="none"
   d="m 601.69771,57.793885 c 0.35101,0.19165 0.35797,0.38891 0.35485,0.48706 -3.92297,0.52209 -5.69275,2.8183 -6.91125,6.5426 -4.45215,13.60755 -9.22931,27.11066 -14.04083,40.597225 -1.05262,2.95038 -2.43299,5.89301 -4.21949,8.45001 -3.82434,5.47383 -11.27374,7.01314 -16.93866,3.87403 -3.70086,-2.05078 -5.3211,-6.64502 -3.44525,-10.31714 1.93006,-3.77832 5.37757,-4.5697 8.92816,-3.16266 1.69495,0.67175 3.26325,2.72595 3.92395,4.51111 0.34742,0.93878 -1.42334,2.62567 -2.16027,4.01581 -0.4112,0.77532 -1.10816,1.80828 -0.87256,2.41102 0.27783,0.71056 1.67785,1.69078 2.15094,1.49414 2.0542,-0.85347 4.70721,-1.61689 5.75299,-3.28449 2.78619,-4.44256 4.85553,-9.33479 7.96142,-15.552855 -9.61444,2.371265 -9.76953,-4.31495 -11.64471,-9.12751 -3.20386,-8.22271 -6.11688,-16.56012 -9.40253,-24.74884 -0.89013,-2.21844 -2.6795,-4.07617 -4.15039,-6.23797 7.40711,0 15.34448,0 24.36798,0 -2.0158,1.11413 -3.16089,1.74694 -4.74548,2.62274 2.74371,8.31183 5.48114,16.60467 8.21857,24.89752 0.35138,-0.005 0.70269,-0.0106 1.05407,-0.0158 2.89777,-8.33972 5.7956,-16.6795 8.76673,-25.23022 -2.12543,-0.66199 -3.60346,-1.12238 -5.08148,-1.5827 0.0375,-0.27826 0.0749,-0.55652 0.11242,-0.83478 3.88996,0 7.77991,0 12.02082,0.19171 z"
   id="path7" />
<path
   fill="#4C1950"
   opacity="1"
   stroke="none"
   d="m 318.43592,94.018865 c -8.08654,6.380125 -20.72485,6.735955 -28.74581,1.07159 -6.67618,-4.71466 -9.43598,-15.02124 -6.55466,-24.47894 3.91385,-12.84699 23.64572,-18.68854 33.96371,-9.98377 4.6066,3.88635 5.59983,9.17169 5.33387,15.7688 -6.04947,0 -11.98352,0.32367 -17.86405,-0.0984 -5.07257,-0.36401 -6.58877,1.65399 -5.80838,6.29822 0.21982,1.30817 0.0962,2.67682 0.34369,3.97705 0.80264,4.21692 1.99887,8.20538 6.98816,9.27655 5.05054,1.08417 9.72339,-0.80957 12.56506,-5.15564 0.95615,-1.46228 1.71512,-3.05347 2.56418,-4.58575 0.409,0.20874 0.818,0.41748 1.22699,0.62622 -1.25745,2.33838 -2.51486,4.67669 -4.01276,7.28406 m -11.3012,-28.52607 c -0.0384,-0.65954 0.16494,-1.48968 -0.15851,-1.94812 -1.19397,-1.69226 -2.5622,-3.26141 -3.86487,-4.87689 -1.3353,1.63373 -3.50018,3.1178 -3.82748,4.93323 -0.61786,3.42712 -0.17841,7.04492 -0.17841,10.5769 2.96494,0 5.33762,0 8.05429,0 0,-2.85376 0,-5.31256 -0.025,-8.68512 z"
   id="path8" />
<path
   fill="#4C1950"
   opacity="1"
   stroke="none"
   d="m 467.0146,97.521665 c -8.57489,2.760005 -16.89325,2.36017 -23.96747,-3.53998 -6.71594,-5.60131 -7.50287,-13.4331 -5.89404,-21.48803 2.86999,-14.36927 23.66815,-21.21338 34.82416,-11.57404 3.67572,3.1759 5.28936,8.16028 4.63079,15.30908 -7.56976,0 -15.25115,0 -22.75402,0 -2.53937,12.84076 1.84161,20.45819 11.65191,20.31855 0.94623,0.43371 1.22742,0.70404 1.50867,0.97442 m -12.53046,-36.72137 c -0.58209,4.4519 -1.16424,8.90374 -1.74408,13.33825 3.77588,0 6.3252,0 9.44013,0 -0.33667,-4.24829 -0.38684,-8.05596 -1.00098,-11.77038 -0.66223,-4.00568 -2.88019,-5.02008 -6.69507,-1.56787 z"
   id="path9" />
<path
   fill="#4C1950"
   opacity="1"
   stroke="none"
   d="m 827.00549,83.731015 c -8.55498,-3.43237 -11.35948,-7.01312 -11.09752,-13.80169 0.23883,-6.18927 3.66266,-11.55555 9.40302,-12.63154 4.0586,-0.76068 8.4385,0.23499 12.6774,0.3772 2.3372,0.0785 4.6792,0.0141 7.4878,0.0141 0,2.98767 0,6.93799 0,12.23297 -1.5317,-2.54883 -2.3742,-4.0484 -3.3087,-5.48834 -3.2128,-4.95026 -8.0865,-7.20044 -13.7333,-5.72705 -1.7573,0.4585 -4.1054,2.27191 -4.36466,3.77808 -0.23389,1.35888 1.68046,3.83715 3.24356,4.59973 3.2541,1.5874 6.922,2.30945 10.385,3.48919 8.2433,2.80817 11.4642,7.94464 10.34,16.35382 -0.9112,6.81629 -6.1391,11.29761 -14.1019,11.51282 -3.0866,0.0834 -6.1898,-0.92578 -9.3045,-1.25848 -2.70449,-0.28894 -5.43594,-0.32562 -8.54592,-0.49512 0,-3.33362 0,-8.01471 0,-12.6958 0.2395,-0.0602 0.47906,-0.12054 0.71856,-0.18079 0.93866,1.87348 1.78937,3.79749 2.83203,5.61109 3.43586,5.97632 11.00573,8.88965 17.17093,6.27606 1.5377,-0.65198 3.3492,-2.65649 3.4453,-4.14209 0.094,-1.45392 -1.5075,-3.72345 -2.9523,-4.42535 -3.1073,-1.50928 -6.5923,-2.24097 -10.2948,-3.39881 z"
   id="path10" />
<path
   fill="#4C1950"
   opacity="1"
   stroke="none"
   d="m 778.8647,72.825985 c 5.94049,4.38245 6.72003,10.08271 4.93408,16.29145 -1.74298,6.0592 -6.53937,8.79895 -12.38135,9.20453 -3.54687,0.24621 -7.17676,-0.83484 -10.77978,-1.2229 -2.51532,-0.27094 -5.04834,-0.37775 -8.22278,-0.60413 0,-3.11621 0,-7.61786 0,-13.47669 1.61816,2.96076 2.57458,4.92609 3.72296,6.77192 3.56067,5.72271 10.09637,8.3023 16.37836,6.04516 1.7254,-0.62005 3.90228,-2.59887 4.07757,-4.15613 0.16358,-1.45349 -1.72034,-3.84607 -3.2984,-4.63647 -3.08307,-1.54407 -6.5946,-2.21967 -9.90558,-3.32434 -9.37835,-3.12927 -13.06354,-9.05609 -10.75787,-17.22809 2.25183,-7.98108 10.13098,-11.87628 19.2467,-9.67316 3.07459,0.74311 6.24329,1.09705 9.90509,1.7201 0,2.28167 0,5.85522 0,9.42877 -0.26214,0.1651 -0.52429,0.33026 -0.78643,0.49542 -0.784,-1.25275 -1.542,-2.52264 -2.35657,-3.75519 -3.59418,-5.43884 -8.78186,-7.72613 -14.58771,-5.91137 -1.59015,0.49707 -3.65851,2.31866 -3.81909,3.72528 -0.15796,1.3825 1.49799,3.75738 2.93518,4.39447 4.99188,2.21264 10.23456,3.85943 15.69562,5.91137 z"
   id="path11" />
<path
   fill="#4C1950"
   opacity="1"
   stroke="none"
   d="m 400.3907,71.469295 c -2.25458,-4.74878 -4.36023,-9.14453 -6.38117,-13.36328 6.71906,0 14.84497,0 24.34497,0 -2.48217,0.97766 -3.81201,1.50147 -5.68365,2.23865 3.02197,8.36414 6.03076,16.69153 9.03949,25.01898 0.38696,0.008 0.77399,0.0159 1.16095,0.0239 2.72131,-8.39002 5.44256,-16.77997 8.25714,-25.45752 -1.91443,-0.37329 -3.45837,-0.67432 -5.00232,-0.9754 0.006,-0.25916 0.0121,-0.51838 0.0182,-0.77759 3.42181,0 6.84363,0 9.4447,0 -1.2232,2.31665 -3.08795,4.98199 -4.10711,7.93884 -3.24769,9.42157 -6.25831,18.92786 -9.18458,28.45538 -0.79003,2.57245 -1.84423,4.12268 -4.79693,3.78943 -2.93176,-0.33075 -6.13764,1.02765 -7.6875,-3.41357 -2.73346,-7.83307 -6.14539,-15.42932 -9.42218,-23.47785 z"
   id="path12" />
<path
   fill="#4C1950"
   opacity="1"
   stroke="none"
   d="m 326.30323,60.500675 c -1.24057,-0.76856 -2.27145,-1.22242 -4.71096,-2.29639 9.55145,0 17.67349,0 25.7955,0 0.0434,0.1814 0.0868,0.36279 0.13031,0.54425 -1.29834,0.38061 -2.59668,0.76129 -4.4574,1.30682 3.03803,8.43988 6.04761,16.80072 9.57489,26.59955 2.44489,-6.70709 4.43066,-12.15466 6.41644,-17.60229 0.5102,0.18127 1.02045,0.36261 1.53064,0.54388 -1.16742,3.85718 -2.2998,7.72547 -3.51214,11.56848 -1.20044,3.80542 -2.48554,7.58411 -3.72614,11.37696 -1.91174,5.8446 -3.80426,7.11798 -9.70306,5.62359 -1.35169,-0.34253 -2.7099,-2.19244 -3.3266,-3.65918 -4.70367,-11.18695 -9.22424,-22.45092 -14.01148,-34.00567 z"
   id="path13" />
<path
   fill="#4f9099"
   opacity="1"
   stroke="none"
   d="m 791.69227,84.649775 c -0.006,-6.99371 -0.009,-13.48974 -0.02,-19.98571 -0.009,-5.1449 -0.014,-5.1449 -4.46942,-7.59998 6.20612,0 12.4184,-0.12817 18.61011,0.17108 0.72876,0.0352 1.90057,2.40894 1.92328,3.71497 0.17035,9.82446 0.12866,19.65308 0.0972,29.48022 -0.01,3.05677 -0.4455,6.28156 4.17718,6.72937 -8.06665,0 -16.1333,0 -25.26404,0 7.69843,-2.21423 4.12806,-7.81738 4.94568,-12.50995 z"
   id="path14" />
<path
   fill="#4d8f98"
   opacity="1"
   stroke="none"
   d="m 370.748,96.653625 c 1.06976,-0.73987 2.34704,-1.45203 2.35498,-2.17822 0.12585,-11.42774 0.0883,-22.85724 0.0883,-35.26886 -4.14258,0.35669 -7.71369,0.66418 -10.39576,0.89514 3.01313,-2.8302 14.07587,-3.92926 26.3324,-1.7627 0,6.14887 -6e-5,12.41291 -6e-5,18.67688 0,6.29493 6e-5,12.58985 6e-5,19.12995 1.65564,0.3435 3.00824,0.62414 4.36084,0.90478 -0.009,0.34247 -0.0179,0.68494 -0.0268,1.02741 -7.97205,0 -15.9441,0 -23.91614,0 0.27307,-0.46772 0.54614,-0.93543 1.20221,-1.42438 z"
   id="path15" />
<path
   fill="#54939b"
   opacity="1"
   stroke="none"
   d="m 18.284403,110.76361 c 4.87197,0.50373 8.06153,-0.0255 8.41547,-5.80561 0.98537,-16.091485 16.21233,-24.095145 30.207,-25.045955 17.85463,-1.21313 33.05881,6.53626 36.78812,25.422725 0.62662,3.17346 2.27811,4.03174 5.19095,3.90699 3.323607,-0.14246 6.663477,-0.14234 9.985647,0.0174 1.64841,0.0793 3.27304,0.65436 4.83368,2.09522 -33.163657,1.7467 -66.254237,2.32208 -99.352487,2.33782 -0.0699,-0.74176 -0.13971,-1.48352 -0.20956,-2.22528 1.23184,-0.23431 2.46369,-0.46862 4.14118,-0.7033 m 31.23137,-0.19788 c 13.6899,-0.38709 27.3798,-0.77411 41.03218,-1.16016 0.18537,-18.941705 -15.21351,-27.139095 -31.77682,-26.387195 -15.36876,0.69757 -30.82666,9.4566 -28.9942,27.559435 6.2095,0 12.48291,0 19.73884,-0.0121 z"
   id="path16" />
<path
   fill="#4c8e97"
   opacity="1"
   stroke="none"
   d="m 170.22401,11.693665 c 9e-5,47.52338 9e-5,94.551945 9e-5,141.580565 -0.49127,6e-5 -0.98257,1.3e-4 -1.47384,1.8e-4 0,-51.06622 0,-102.132385 0,-153.198605 0.49121,-0.0253 0.98242,-0.0505 1.47363,-0.0758 0,3.7329 0,7.46588 1.2e-4,11.69366 z"
   id="path17" />
<path
   fill="#4f9099"
   opacity="1"
   stroke="none"
   d="m 375.09126,49.841245 c -3.06683,-4.09881 -3.17688,-8.03027 -0.0702,-11.60345 2.45026,-2.8183 8.19733,-3.10407 11.57434,-0.88581 3.65198,2.39881 3.99408,5.92688 2.75708,9.67084 -1.62451,4.91663 -7.61859,6.17053 -14.26117,2.81842 z"
   id="path18" />
<path
   fill="#4f9099"
   opacity="1"
   stroke="none"
   d="m 803.08076,50.891355 c -4.95666,1.04541 -9.09119,0.66944 -11.2055,-4.26611 -1.7945,-4.18903 0.082,-8.80866 3.99188,-10.42236 4.41046,-1.82032 10.12555,-0.16309 11.8324,3.43121 1.9118,4.02588 0.19586,8.53387 -4.61878,11.25726 z"
   id="path19" />
<path
   fill="#54939b"
   opacity="1"
   stroke="none"
   d="m 103.15187,92.459165 c 6.12231,-0.77984 11.53912,-4.60797 17.58758,-2.79132 0.12741,0.59699 0.25485,1.19391 0.38227,1.79089 -6.12613,1.51545 -12.24332,3.06995 -18.39359,4.48017 -0.55658,0.12768 -1.32617,-0.67371 -1.99686,-1.04364 0.6894,-0.77667 1.37876,-1.55329 2.4206,-2.4361 z"
   id="path20" />
<path
   fill="#54939b"
   opacity="1"
   stroke="none"
   d="m 54.381513,68.889585 c -0.44938,-6.12396 -0.79957,-11.86371 -1.14976,-17.60351 3.71689,2.28192 4.63539,11.59027 2.21185,20.63855 -0.32097,-0.88361 -0.64194,-1.76722 -1.06209,-3.03504 z"
   id="path21" />
<path
   fill="#54939b"
   opacity="1"
   stroke="none"
   d="m 93.750013,79.225465 c -0.87774,-0.68402 -2.05475,-2.04614 -1.90667,-2.20978 3.23953,-3.58191 6.62634,-7.03052 10.516077,-10.02777 0.39523,6.35773 -4.991917,8.50043 -8.609407,12.23755 z"
   id="path22" />
<path
   fill="#54939b"
   opacity="1"
   stroke="none"
   d="m 81.050063,53.174685 c -0.88055,5.33825 -1.77347,10.27368 -2.66637,15.20916 -0.48329,0.003 -0.96658,0.005 -1.44987,0.008 -0.44936,-0.92767 -1.40222,-1.93914 -1.26398,-2.76892 0.73476,-4.41064 1.51856,-8.83941 2.73886,-13.13305 0.76015,-2.67463 1.9332,-1.66291 2.64136,0.68524 z"
   id="path23" />
<path
   fill="#54939b"
   opacity="1"
   stroke="none"
   d="M 9.336853,100.24871 C 5.990443,98.750855 2.995223,97.399235 3e-6,96.047545 c 0.29985,-0.67615 0.5997,-1.35229 0.89955,-2.02838 5.95024,2.44104 11.90046,4.88208 17.85069,7.323115 -0.22113,0.64192 -0.44226,1.28387 -0.66339,1.92584 -2.79961,-0.95776 -5.59921,-1.91553 -8.75,-3.01941 z"
   id="path24" />
<path
   fill="#54939b"
   opacity="1"
   stroke="none"
   d="m 14.382413,79.489565 c 3.16023,1.99396 6.00661,3.80023 9.6142,6.08954 -5.75015,0.54846 -15.57173,-5.94178 -17.2262,-11.28077 2.86063,1.96125 5.07939,3.48243 7.612,5.19123 z"
   id="path25" />
<path
   fill="#54939b"
   opacity="1"
   stroke="none"
   d="m 33.283863,67.558405 c -1.19103,-2.5849 -2.21479,-4.83782 -3.23854,-7.09069 0.69628,-0.33918 1.39259,-0.67835 2.08889,-1.01752 2.59787,4.82935 5.19573,9.65875 7.79358,14.4881 -0.63293,0.39105 -1.26587,0.78204 -1.8988,1.17309 -1.52597,-2.40704 -3.05193,-4.81408 -4.74513,-7.55298 z"
   id="path26" />
<path
   fill="#54939b"
   opacity="1"
   stroke="none"
   d="m 467.36421,97.495115 c -0.63086,-0.24383 -0.91205,-0.51416 -1.45899,-0.92035 1.89692,-1.60113 4.33326,-2.79431 6.14093,-4.61255 1.62201,-1.63165 2.55268,-3.95068 4.2544,-5.62207 -0.81073,5.25122 -3.42218,9.15235 -8.93634,11.15497 z"
   id="path27" />
<path
   fill="#4f9099"
   opacity="1"
   stroke="none"
   d="m 621.85615,58.397885 c -0.22772,0.0967 -0.41675,-0.0781 -0.65954,-0.46557 0.26373,-0.23029 0.5144,-0.0947 0.65954,0.46557 z"
   id="path28" />






</svg>
