<?xml version="1.0" encoding="UTF-8" standalone="no"?>
<!-- Created with Inkscape (http://www.inkscape.org/) -->

<svg
   width="99.999992mm"
   height="100mm"
   viewBox="0 0 99.999992 99.999997"
   version="1.1"
   id="svg1"
   inkscape:version="1.3.1 (9b9bdc1480, 2023-11-25, custom)"
   sodipodi:docname="revive-hypnosis-just-logo.svg"
   xmlns:inkscape="http://www.inkscape.org/namespaces/inkscape"
   xmlns:sodipodi="http://sodipodi.sourceforge.net/DTD/sodipodi-0.dtd"
   xmlns="http://www.w3.org/2000/svg"
   xmlns:svg="http://www.w3.org/2000/svg">
  <sodipodi:namedview
     id="namedview1"
     pagecolor="#505050"
     bordercolor="#ffffff"
     borderopacity="1"
     inkscape:showpageshadow="0"
     inkscape:pageopacity="0"
     inkscape:pagecheckerboard="1"
     inkscape:deskcolor="#505050"
     inkscape:document-units="mm"
     inkscape:zoom="1.0476431"
     inkscape:cx="225.26756"
     inkscape:cy="271.08469"
     inkscape:window-width="2501"
     inkscape:window-height="1376"
     inkscape:window-x="0"
     inkscape:window-y="0"
     inkscape:window-maximized="1"
     inkscape:current-layer="layer1" />
  <defs
     id="defs1" />
  <g
     inkscape:label="Layer 1"
     inkscape:groupmode="layer"
     id="layer1"
     transform="translate(-45.508334,-76.729197)">
    <path
       fill="#54939b"
       opacity="1"
       stroke="none"
       d="m 60.604223,149.43988 c 4.022374,0.41589 6.655728,-0.0209 6.947944,-4.79321 0.813539,-13.28538 13.385158,-19.89333 24.939378,-20.67833 14.741065,-1.00158 27.293875,5.39644 30.372845,20.98941 0.51735,2.62006 1.88086,3.32866 4.28574,3.22567 2.74402,-0.11761 5.50147,-0.11752 8.24431,0.0144 1.36095,0.0655 2.70227,0.54026 3.99076,1.72985 -27.38044,1.4421 -54.700547,1.91714 -82.026985,1.93014 -0.0577,-0.6124 -0.115363,-1.22482 -0.173029,-1.83722 1.017026,-0.19344 2.034062,-0.3869 3.419024,-0.58066 m 25.785113,-0.16336 c 11.302597,-0.31958 22.605197,-0.63912 33.876817,-0.95784 0.15305,-15.63858 -12.56052,-22.40647 -26.235445,-21.78569 -12.688693,0.57593 -25.450977,7.80752 -23.93807,22.75351 5.126661,0 10.306088,0 16.296698,-0.01 z"
       id="path16"
       style="stroke-width:0.825615;fill:#ffffff;fill-opacity:1" />
    <path
       fill="#54939b"
       opacity="1"
       stroke="none"
       d="m 130.67215,134.32744 c 5.05467,-0.64384 9.52688,-3.80441 14.52058,-2.30455 0.10519,0.49288 0.21041,0.9857 0.3156,1.47858 -5.05782,1.25118 -10.10827,2.5346 -15.18603,3.6989 -0.45952,0.10541 -1.09491,-0.55622 -1.64864,-0.86165 0.56918,-0.64123 1.13833,-1.28242 1.99849,-2.01128 z"
       id="path20"
       style="stroke-width:0.825615;fill:#ffffff;fill-opacity:1" />
    <path
       fill="#54939b"
       opacity="1"
       stroke="none"
       d="m 90.406569,114.86798 c -0.371017,-5.05607 -0.660139,-9.79493 -0.949263,-14.53382 3.068726,1.88399 3.827052,9.56916 1.82614,17.03961 -0.264988,-0.72953 -0.529997,-1.45906 -0.876877,-2.50579 z"
       id="path21"
       style="stroke-width:0.825615;fill:#ffffff;fill-opacity:1" />
    <path
       fill="#54939b"
       opacity="1"
       stroke="none"
       d="m 122.90983,123.40149 c -0.72469,-0.56474 -1.69644,-1.68933 -1.57418,-1.82444 2.6746,-2.9573 5.47081,-5.80454 8.68224,-8.27913 0.3263,5.24907 -4.12141,7.01813 -7.10806,10.10357 z"
       id="path22"
       style="stroke-width:0.825615;fill:#ffffff;fill-opacity:1" />
    <path
       fill="#54939b"
       opacity="1"
       stroke="none"
       d="m 112.42455,101.89343 c -0.727,4.40737 -1.46421,8.48216 -2.2014,12.55699 -0.39902,0.002 -0.79803,0.004 -1.19704,0.007 -0.37099,-0.7659 -1.1577,-1.60099 -1.04356,-2.28607 0.60663,-3.64152 1.25374,-7.298 2.26125,-10.84292 0.62759,-2.208222 1.59608,-1.372928 2.18075,0.56575 z"
       id="path23"
       style="stroke-width:0.825615;fill:#ffffff;fill-opacity:1" />
    <path
       fill="#54939b"
       opacity="1"
       stroke="none"
       d="m 53.216985,140.75861 c -2.76285,-1.23665 -5.235751,-2.35257 -7.708651,-3.46855 0.247576,-0.55824 0.49512,-1.11647 0.742683,-1.67465 4.912611,2.01535 9.825207,4.03072 14.737811,6.04608 -0.182576,0.52997 -0.365138,1.05998 -0.547705,1.59 -2.311401,-0.79074 -4.622797,-1.5815 -7.224138,-2.49288 z"
       id="path24"
       style="stroke-width:0.825615;fill:#ffffff;fill-opacity:1" />
    <path
       fill="#54939b"
       opacity="1"
       stroke="none"
       d="m 57.38268,123.61954 c 2.609134,1.64624 4.959152,3.13752 7.937635,5.02762 -4.747416,0.45281 -12.856267,-4.90563 -14.222225,-9.31361 2.361781,1.61925 4.193624,2.87516 6.28459,4.28599 z"
       id="path25"
       style="stroke-width:0.825615;fill:#ffffff;fill-opacity:1" />
    <path
       fill="#54939b"
       opacity="1"
       stroke="none"
       d="m 72.988013,113.76893 c -0.98333,-2.13415 -1.828563,-3.99421 -2.673787,-5.85423 0.574859,-0.28003 1.149743,-0.56006 1.724619,-0.84008 2.144842,3.98721 4.289678,7.97446 6.434501,11.96167 -0.522554,0.32286 -1.045121,0.64567 -1.567676,0.96853 -1.259867,-1.9873 -2.519722,-3.9746 -3.917657,-6.23589 z"
       id="path26"
       style="stroke-width:0.825615;fill:#ffffff;fill-opacity:1" />
  </g>
</svg>
