<svg width="1920" height="232" viewBox="0 0 1920 232" fill="none" xmlns="http://www.w3.org/2000/svg">
<path d="M975 195H1199C1199 195 1179.53 170.504 1141.28 184.971C1119.93 137.89 1050.93 148.569 1033.37 179.956C1000.74 162.35 975 195 975 195Z" fill="white"/>
<path opacity="0.52" d="M1500.6 172.928H1639.92C1639.92 172.928 1627.84 157.701 1604 166.68C1590.72 137.429 1547.81 144.047 1536.89 163.579C1516.57 152.609 1500.6 172.928 1500.6 172.928Z" fill="white"/>
<path d="M1799.56 59.6255H2000.25C2000.25 59.6255 1982.8 23.247 1940.64 39.261C1911.57 -30.534 1840.29 8.71413 1827.2 42.1768C1805.07 31.6706 1799.56 59.6255 1799.56 59.6255Z" fill="white"/>
<path opacity="0.52" d="M114.919 138.895H239.004C239.004 138.895 228.22 116.402 202.163 126.306C184.159 83.1702 140.144 107.423 132.044 128.111C118.344 121.585 114.919 138.895 114.919 138.895Z" fill="white"/>
<path d="M620 232H733C733 232 718.262 210.996 694.385 221.498C678.285 184.379 631.954 190.686 620 232Z" fill="white"/>
<path d="M-87 205H96C96 205 81.7638 180.609 47.2086 193.807C29.9311 159.258 -6.66248 173.492 -14.8159 191.769C-21.9341 156.185 -35.1349 176.533 -36.1703 191.769C-49.3711 176.533 -87 205 -87 205Z" fill="white"/>
</svg>
