<svg xmlns="http://www.w3.org/2000/svg" width="1919" height="379" viewBox="0 0 1919 379" fill="none">

<path d="M747.309 336.865C747.309 336.865 760.53 330.532 761.084 321.009C755.815 321.518 746.292 331.04 746.292 331.04C746.292 331.04 751.053 318.328 742.039 310.932C740.975 318.883 744.443 330.624 744.443 330.624C744.443 330.624 742.177 327.111 736.769 325.493C737.971 329.422 740.513 333.537 747.309 336.865Z" fill="#151F37"/>
<path d="M1708.14 273.534C1708.14 273.534 1732.04 262.07 1732.96 244.873C1723.4 245.844 1706.2 263.04 1706.2 263.04C1706.2 263.04 1714.8 240.112 1698.57 226.752C1696.68 241.082 1702.92 262.301 1702.92 262.301C1702.92 262.301 1698.8 255.968 1689.05 253.055C1691.27 260.082 1695.84 267.524 1708.14 273.534Z" fill="#151F37"/>
<path d="M343.56 303.582C343.56 303.582 353.314 302.935 354.886 294.475C353.314 290.407 347.952 299.191 347.952 299.191C347.952 299.191 346.057 284.121 337.597 278.435C342.312 291.332 345.456 299.191 345.456 299.191C345.456 299.191 338.522 289.113 330.386 288.512C332.882 296.648 343.56 303.582 343.56 303.582Z" fill="#151F37"/>
<path d="M1438.27 246.676C1438.27 246.676 1448.02 246.029 1449.59 237.57C1448.02 233.502 1442.66 242.285 1442.66 242.285C1442.66 242.285 1440.76 227.215 1432.3 221.529C1437.02 234.426 1440.16 242.285 1440.16 242.285C1440.16 242.285 1433.23 232.207 1425.09 231.606C1427.59 239.742 1438.27 246.676 1438.27 246.676Z" fill="#151F37"/>
<path d="M102.624 254.257L116.539 238.263C111.407 237.246 101.607 249.08 101.607 249.08C101.607 249.08 105.722 237.754 94.9044 223.84C91.2525 237.246 102.624 254.257 102.624 254.257Z" fill="#151F37"/>
<path d="M234.557 199.849V286.201" stroke="#151F37" stroke-width="3.1879" stroke-miterlimit="10" stroke-linecap="round"/>
<path d="M259.982 204.471C259.982 217.507 255.128 223.193 235.62 222.315" stroke="#151F37" stroke-width="3.1879" stroke-miterlimit="10" stroke-linecap="round"/>
<path d="M208.716 222.547C208.716 235.583 213.57 241.269 233.078 240.391" stroke="#151F37" stroke-width="3.1879" stroke-miterlimit="10" stroke-linecap="round"/>
<path d="M1025.74 221.899V308.251" stroke="#151F37" stroke-width="3.1879" stroke-miterlimit="10" stroke-linecap="round"/>
<path d="M1051.16 226.521C1051.16 239.558 1046.31 245.243 1026.8 244.365" stroke="#151F37" stroke-width="3.1879" stroke-miterlimit="10" stroke-linecap="round"/>
<path d="M999.894 244.597C999.894 257.633 1004.75 263.319 1024.26 262.441" stroke="#151F37" stroke-width="3.1879" stroke-miterlimit="10" stroke-linecap="round"/>
<path d="M1848.26 175.394V261.746" stroke="#151F37" stroke-width="3.1879" stroke-miterlimit="10" stroke-linecap="round"/>
<path d="M1873.68 180.017C1873.68 193.053 1868.83 198.739 1849.32 197.86" stroke="#151F37" stroke-width="3.1879" stroke-miterlimit="10" stroke-linecap="round"/>
<path d="M1822.41 198.092C1822.41 211.128 1827.27 216.814 1846.78 215.936" stroke="#151F37" stroke-width="3.1879" stroke-miterlimit="10" stroke-linecap="round"/>
<path d="M111.593 249.312C144.09 234.01 144.09 232.115 174.646 258.881C205.203 285.646 235.759 283.705 235.759 283.705C235.759 283.705 298.813 274.136 348.461 302.796C398.109 331.457 407.678 350.549 476.464 354.386C545.25 358.223 741.993 329.562 787.85 329.562C833.707 329.562 803.151 348.654 854.695 327.667C906.284 306.633 885.251 302.843 975.07 299.006C1064.84 295.169 1196.68 277.972 1311.28 264.613C1425.92 251.253 1450.93 227.354 1607.74 253.657C1664.46 263.18 1732.64 268.773 1799.86 255.876C1834.48 249.219 1875.07 252.501 1919.95 263.087V378.344H0V187.229C41.8356 191.666 83.2553 262.671 111.593 249.312Z" fill="#151F37"/>


</svg>