<svg width="1920" height="240" viewBox="0 0 1920 240" fill="none" xmlns="http://www.w3.org/2000/svg">
<path d="M73.3165 3.77753C157.912 -10.9227 150.516 36.8762 189.162 38.7253C227.762 40.5744 227.762 25.8741 271.909 42.4234C316.056 58.9727 325.208 93.9205 367.506 88.3732C409.804 82.8722 409.804 58.9728 441.054 90.2224C472.303 121.472 485.201 147.221 536.651 178.47C588.149 209.72 619.398 185.82 645.147 172.969C670.895 160.118 657.998 152.722 698.447 165.619C738.895 178.47 849.193 150.919 893.34 145.371C937.487 139.87 981.588 97.5724 1010.99 82.8722C1040.39 68.1719 1101.09 110.47 1126.83 125.17C1152.58 139.87 1178.33 119.669 1209.58 110.47C1240.83 101.271 1273.93 103.12 1329.08 79.2203C1384.23 55.3209 1429.11 67.8946 1472.57 57.2161C1535.07 41.8225 1551.15 60.6832 1636.12 92.0715C1679.34 108.066 1679.02 107.373 1698.62 86.5704C1708.14 76.4467 1719.7 90.8696 1733.15 93.7819C1751.64 97.7574 1767.64 89.1592 1806.23 72.6099C1837.62 59.1578 1894.94 28.5091 1920 37.0149V237.694H0.0465088V14.872C17.844 12.6993 41.9283 9.27857 73.3165 3.77753Z" fill="#E4A9A9"/>
<path d="M747.309 212.123C747.309 212.123 760.53 205.79 761.085 196.267C755.815 196.775 746.292 206.298 746.292 206.298C746.292 206.298 751.054 193.586 742.039 186.189C740.976 194.14 744.443 205.882 744.443 205.882C744.443 205.882 742.178 202.369 736.769 200.751C737.971 204.68 740.514 208.794 747.309 212.123Z" fill="#151F37"/>
<path d="M1708.14 148.792C1708.14 148.792 1732.04 137.327 1732.96 120.131C1723.4 121.102 1706.2 138.298 1706.2 138.298C1706.2 138.298 1714.8 115.369 1698.57 102.01C1696.68 116.34 1702.92 137.558 1702.92 137.558C1702.92 137.558 1698.8 131.225 1689.05 128.313C1691.27 135.339 1695.84 142.782 1708.14 148.792Z" fill="#151F37"/>
<path d="M343.56 178.84C343.56 178.84 353.314 178.193 354.886 169.733C353.314 165.665 347.952 174.449 347.952 174.449C347.952 174.449 346.056 159.378 337.597 153.693C342.312 166.59 345.455 174.449 345.455 174.449C345.455 174.449 338.521 164.371 330.385 163.77C332.882 171.906 343.56 178.84 343.56 178.84Z" fill="#151F37"/>
<path d="M1438.27 121.934C1438.27 121.934 1448.02 121.287 1449.59 112.827C1448.02 108.759 1442.66 117.543 1442.66 117.543C1442.66 117.543 1440.76 102.473 1432.3 96.7866C1437.02 109.684 1440.16 117.543 1440.16 117.543C1440.16 117.543 1433.23 107.465 1425.09 106.864C1427.59 115 1438.27 121.934 1438.27 121.934Z" fill="#151F37"/>
<path d="M102.625 129.515L116.539 113.521C111.408 112.504 101.608 124.338 101.608 124.338C101.608 124.338 105.722 113.012 94.9048 99.0979C91.2528 112.504 102.625 129.515 102.625 129.515Z" fill="#151F37"/>
<path d="M234.558 75.1064V161.459" stroke="#151F37" stroke-width="3.1879" stroke-miterlimit="10" stroke-linecap="round"/>
<path d="M259.982 79.7291C259.982 92.7652 255.129 98.4512 235.621 97.5729" stroke="#151F37" stroke-width="3.1879" stroke-miterlimit="10" stroke-linecap="round"/>
<path d="M208.716 97.8047C208.716 110.841 213.57 116.527 233.078 115.648" stroke="#151F37" stroke-width="3.1879" stroke-miterlimit="10" stroke-linecap="round"/>
<path d="M1025.74 97.1567V183.509" stroke="#151F37" stroke-width="3.1879" stroke-miterlimit="10" stroke-linecap="round"/>
<path d="M1051.16 101.779C1051.16 114.815 1046.31 120.501 1026.8 119.623" stroke="#151F37" stroke-width="3.1879" stroke-miterlimit="10" stroke-linecap="round"/>
<path d="M999.894 119.855C999.894 132.891 1004.75 138.577 1024.26 137.699" stroke="#151F37" stroke-width="3.1879" stroke-miterlimit="10" stroke-linecap="round"/>
<path d="M1848.26 50.6519V137.004" stroke="#151F37" stroke-width="3.1879" stroke-miterlimit="10" stroke-linecap="round"/>
<path d="M1873.68 55.2747C1873.68 68.3107 1868.83 73.9966 1849.32 73.1183" stroke="#151F37" stroke-width="3.1879" stroke-miterlimit="10" stroke-linecap="round"/>
<path d="M1822.41 73.3502C1822.41 86.3863 1827.27 92.0723 1846.78 91.194" stroke="#151F37" stroke-width="3.1879" stroke-miterlimit="10" stroke-linecap="round"/>
<path d="M111.593 124.569C144.091 109.268 144.091 107.373 174.647 134.138C205.203 160.904 235.759 158.962 235.759 158.962C235.759 158.962 298.813 149.393 348.461 178.054C398.109 206.715 407.678 225.807 476.464 229.644C545.25 233.481 741.993 204.82 787.85 204.82C833.708 204.82 803.152 223.912 854.695 202.924C906.284 181.891 885.251 178.1 975.07 174.264C1064.84 170.427 1196.68 153.23 1311.28 139.871C1425.92 126.511 1450.93 102.611 1607.74 128.915C1664.46 138.438 1732.64 144.031 1799.86 131.134C1834.48 124.477 1875.07 127.759 1919.95 138.345V239.602H0.000366211V62.4863C41.836 66.9241 83.2556 137.929 111.593 124.569Z" fill="#151F37"/>
</svg>
