<svg width="108" height="178" viewBox="0 0 108 178" fill="none" xmlns="http://www.w3.org/2000/svg">
<path d="M34.1759 5.39898C34.9551 7.40957 35.7344 9.42015 36.4885 11.3659C43.7816 28.7207 45.3222 47.9209 40.8866 66.1804C60.5803 58.5426 82.3309 57.8568 102.502 64.2376C103.468 64.4931 104.368 64.9512 105.142 65.5811C105.915 66.211 106.544 66.9981 106.986 67.8892L107.263 68.6026C107.883 70.2197 107.911 72.0009 107.341 73.6338C103.057 83.8621 96.5811 93.0371 88.3629 100.522C80.1448 108.007 70.3813 113.622 59.7503 116.978C75.9055 127.485 88.1767 142.936 94.6994 160.983L97.012 166.95C97.3953 167.897 97.5638 168.917 97.5055 169.935C97.4472 170.954 97.1635 171.947 96.6747 172.844C96.1858 173.741 95.5038 174.519 94.6771 175.123C93.8504 175.728 92.8994 176.143 91.8918 176.341C91.2393 176.589 26.444 191.576 -3.26743 114.914L-4.97672 110.504C-34.7684 34.0218 23.4412 2.04229 24.0936 1.79395C24.9748 1.30953 25.9514 1.02029 26.9565 0.946046C27.9615 0.871805 28.9713 1.01432 29.9167 1.36383C30.8636 1.71639 31.7292 2.2557 32.4612 2.94922C33.1933 3.64274 33.7766 4.47609 34.1759 5.39898ZM90.0384 76.1261C80.122 73.8263 69.8294 73.6584 59.8511 75.6336C49.8728 77.6087 40.4395 81.6813 32.1838 87.578C28.8859 93.2459 25.0332 98.5761 20.6818 103.492C26.158 104.08 31.5748 105.131 36.8732 106.632C47.596 106.331 58.0695 103.385 67.3504 98.0594C76.6313 92.7341 84.428 85.1967 90.0384 76.1261ZM80.0323 163.514C76.1834 153.449 70.0937 144.375 62.2193 136.971C54.3449 129.567 44.8897 124.025 34.5619 120.76L33.7083 120.489C27.063 118.467 20.1778 117.333 13.2347 117.118C32.9273 160.008 65.0127 164.17 80.0323 163.514ZM5.90978 98.0249C11.8696 92.3872 16.9199 85.8715 20.8838 78.7058L21.1244 78.1677C25.824 69.1515 28.5257 59.2372 29.0482 49.0901C29.5706 38.9431 27.9018 28.7979 24.1537 19.3354C12.3869 28.5772 -8.57322 52.9284 5.90978 98.0249Z" fill="#F9CFD0"/>
</svg>
