<svg width="1920" height="264" viewBox="0 0 1920 264" fill="none" xmlns="http://www.w3.org/2000/svg">
<path d="M380.438 172.814C453.01 193.873 513.641 155.505 584.547 164.16C655.453 172.814 667.579 158.976 745.427 139.953C823.275 120.931 828.459 164.16 866.504 141.666C904.549 119.172 899.365 127.827 923.571 143.378C947.777 158.93 1026.27 173.972 1123.98 139.861C1174.61 122.181 1250.61 73.1669 1278.19 69.2328C1302.91 65.7153 1340.4 107.046 1380.15 91.495C1419.96 75.9439 1438.98 69.0014 1461.43 79.3689C1482.44 89.042 1505.16 76.9158 1515.72 73.1206C1522.52 72.3801 1530.81 79.9242 1548.21 81.035C1612.08 85.2005 1703.58 93.1612 1743.38 56.8753C1783.19 20.543 1817.76 -6.52413 1845.44 2.13081C1865.85 8.51788 1902.27 52.4028 1919.95 29.2527V258.093H-2.27667V214.272C17.9491 196.916 41.7386 160.853 69.0919 174.553C107.137 193.575 123 184.16 154.985 149.126C182.57 138.759 203.192 131.642 195 141.5C186.808 151.312 205.48 151.903 253.438 135.143C271.442 138.429 275.515 140.882 279.634 153.98C283.707 167.078 282.92 156.245 301.711 161.984C320.594 167.77 352.761 164.807 380.438 172.814Z" fill="#515E7D"/>
<path d="M416.306 57.1353C416.306 57.1353 419.379 64.0289 419.429 66.4517C419.478 68.8745 417.705 70.7977 421.626 73.9948C420.902 74.5442 419.578 74.9439 419.578 74.9439C419.578 74.9439 418.504 81.6877 417.555 83.0114C416.606 84.3352 406.865 83.1363 406.865 83.1363L403.768 89.1058C403.768 89.1058 392.778 89.8551 394.227 86.2085C396.45 80.6636 396.699 75.4933 396.699 75.4933C396.699 75.4933 392.428 68.8245 392.853 60.9568C377.892 59.0585 384.336 43.2731 395.8 52.7144C402.944 46.7449 418.404 53.2888 416.306 57.1353Z" fill="#151F37"/>
<path d="M406.241 90.5296C406.241 90.5296 388.607 72.721 379.965 65.3029C371.323 57.8847 372.197 56.1113 366.552 52.0651C360.907 47.9938 347.495 37.9531 342.899 33.3573C338.303 28.7616 337.429 24.8901 334.781 26.6385C332.134 28.4119 329.836 33.1825 329.836 33.1825C329.836 33.1825 336.905 37.4286 341.85 41.9993C346.795 46.5951 359.334 59.3084 365.503 64.6035C371.672 69.8986 387.583 94.8007 387.583 94.8007C387.583 94.8007 409.063 99.6962 406.241 90.5296Z" fill="#151F37"/>
<path d="M387.358 84.0109C387.358 84.0109 378.891 94.9508 370.574 96.3745C362.281 97.7982 356.811 96.7242 356.811 96.7242C356.811 96.7242 349.218 91.4291 335.281 89.306C321.344 87.183 308.631 81.0137 308.631 81.0137C308.631 81.0137 322.568 52.9396 326.289 46.4206C325.94 45.7212 325.94 45.7212 325.94 45.7212C325.94 45.7212 327.788 45.1967 330.361 45.1967C333.907 45.1717 334.782 46.4206 336.006 40.4261C337.229 34.4317 339.178 28.9617 341.126 24.0162C343.074 19.0708 341.825 17.4723 339.352 20.4945C336.88 23.4917 329.636 31.0847 325.94 35.6805C322.243 40.2762 320.295 43.2735 320.295 43.2735L319.246 42.4742C319.246 42.4742 311.428 52.8147 307.906 57.1107C304.385 61.4068 292.97 78.2662 291.197 81.0137C289.398 83.7612 290.173 86.8083 295.443 90.8296C300.713 94.826 331.734 110.487 331.734 110.487L338.953 197.581L340.077 197.856C340.077 197.856 339.727 211.244 339.103 214.241C338.478 217.213 338.778 218.787 342.25 219.736C345.722 220.685 363.58 220.06 366.877 220.06C370.174 220.06 369.225 217.862 366.877 217.088C364.529 216.314 352.765 211.119 350.242 209.395C347.72 207.672 347.095 207.672 347.42 204.375C347.745 201.078 347.895 198.705 347.895 198.705H350.242C350.242 198.705 355.113 121.826 356.686 116.181C362.481 116.806 373.646 115.707 373.646 115.707C373.646 115.707 380.714 115.857 386.359 115.707C392.004 115.557 397.199 118.854 399.072 114.133C400.946 109.437 407.39 104.092 409.263 97.3486C411.136 90.6048 423.375 88.257 426.372 85.8842C429.344 83.5364 444.88 73.021 448.801 68.9248C452.723 64.8536 459.467 62.0312 463.088 60.6075C466.71 59.1838 470.781 56.0617 470.457 54.8128C470.132 53.564 469.932 53.9386 469.932 53.9386C469.932 53.9386 477.225 47.095 476.226 45.5714C475.252 44.0478 475.202 45.2467 473.554 46.5954C471.93 47.9442 461.765 54.5381 456.544 57.7851C451.324 61.0571 440.035 67.5012 435.189 70.5983C430.344 73.6955 419.853 78.2662 419.853 78.2662C419.853 78.2662 402.244 85.3097 399.422 86.3588C396.575 87.3329 387.358 84.0109 387.358 84.0109Z" fill="#151F37"/>
<path d="M1011.97 185.033C873.215 192.114 733.764 185.45 595.192 194.382C395.619 207.203 195.213 252.236 -2.27667 239.138V263.139H1920V104.824C1617.77 87.8385 1316.28 169.482 1011.97 185.033Z" fill="#151F37"/>
<path d="M1272.36 159.464C1272.36 159.464 1248.43 147.986 1247.51 130.769C1257.09 131.741 1274.3 148.958 1274.3 148.958C1274.3 148.958 1265.7 126.002 1281.94 112.626C1283.84 126.973 1277.59 148.217 1277.59 148.217C1277.59 148.217 1281.71 141.877 1291.48 138.961C1289.25 146.042 1284.63 153.447 1272.36 159.464Z" fill="#151F37"/>
<path d="M798.422 188.632C798.422 188.632 774.494 177.154 773.568 159.936C783.148 160.908 800.366 178.125 800.366 178.125C800.366 178.125 791.757 155.169 808.003 141.793C809.9 156.141 803.652 177.385 803.652 177.385C803.652 177.385 807.771 171.044 817.537 168.128C815.315 175.163 810.733 182.615 798.422 188.632Z" fill="#151F37"/>
<path d="M1552.19 120.033C1552.19 120.033 1542.42 119.385 1540.85 110.915C1542.42 106.842 1547.79 115.636 1547.79 115.636C1547.79 115.636 1549.69 100.547 1558.16 94.8545C1553.44 107.767 1550.29 115.636 1550.29 115.636C1550.29 115.636 1557.23 105.546 1565.38 104.944C1562.88 113.09 1552.19 120.033 1552.19 120.033Z" fill="#151F37"/>
<path d="M575.504 196.897C575.504 196.897 565.738 196.249 564.165 187.779C565.738 183.706 571.107 192.5 571.107 192.5C571.107 192.5 573.005 177.411 581.475 171.719C576.754 184.631 573.606 192.5 573.606 192.5C573.606 192.5 580.549 182.41 588.695 181.808C586.242 190 575.504 196.897 575.504 196.897Z" fill="#151F37"/>
<path d="M1733.94 104.342L1720.01 88.3282C1725.15 87.31 1734.96 99.1586 1734.96 99.1586C1734.96 99.1586 1730.84 87.8192 1741.67 73.8879C1745.33 87.31 1733.94 104.342 1733.94 104.342Z" fill="#151F37"/>
<path d="M1662.43 23.5308V110.034" stroke="#151F37" stroke-width="3.1879" stroke-miterlimit="10" stroke-linecap="round"/>
<path d="M1636.98 28.1594C1636.98 41.2113 1641.84 46.9041 1661.37 46.0247" stroke="#151F37" stroke-width="3.1879" stroke-miterlimit="10" stroke-linecap="round"/>
<path d="M1688.31 46.2561C1688.31 59.3079 1683.45 65.0008 1663.92 64.1214" stroke="#151F37" stroke-width="3.1879" stroke-miterlimit="10" stroke-linecap="round"/>
<path d="M117.901 158.215V244.672" stroke="#151F37" stroke-width="3.1879" stroke-miterlimit="10" stroke-linecap="round"/>
<path d="M92.445 162.844C92.445 175.896 97.3047 181.588 116.836 180.709" stroke="#151F37" stroke-width="3.1879" stroke-miterlimit="10" stroke-linecap="round"/>
<path d="M143.773 180.94C143.773 193.992 138.913 199.685 119.382 198.806" stroke="#151F37" stroke-width="3.1879" stroke-miterlimit="10" stroke-linecap="round"/>
</svg>
