<svg width="1920" height="389" viewBox="0 0 1920 389" fill="none" xmlns="http://www.w3.org/2000/svg">
<path d="M73.3165 152.778C157.912 138.077 150.516 185.876 189.162 187.725C227.762 189.574 227.762 174.874 271.909 191.423C316.056 207.973 325.208 242.92 367.506 237.373C409.804 231.872 409.804 207.973 441.054 239.222C472.303 270.472 485.201 296.221 536.651 327.47C588.149 358.72 619.398 334.82 645.147 321.969C670.895 309.118 657.998 301.722 698.447 314.619C738.895 327.47 849.193 299.919 893.34 294.371C937.487 288.87 981.588 246.572 1010.99 231.872C1040.39 217.172 1101.09 259.47 1126.83 274.17C1152.58 288.87 1178.33 268.669 1209.58 259.47C1240.83 250.271 1273.93 252.12 1329.08 228.22C1384.23 204.321 1429.11 216.895 1472.57 206.216C1535.07 190.822 1551.15 209.683 1636.12 241.071C1679.34 257.066 1679.02 256.373 1698.62 235.57C1708.14 225.447 1719.7 239.87 1733.15 242.782C1751.64 246.757 1767.64 238.159 1806.23 221.61C1837.62 208.158 1894.94 177.509 1920 186.015V388.694H0.0465088V163.872C17.844 161.699 41.9283 158.279 73.3165 152.778Z" fill="#A7BFFE"/>
<path d="M747.309 361.123C747.309 361.123 760.53 354.79 761.084 345.267C755.815 345.775 746.292 355.298 746.292 355.298C746.292 355.298 751.053 342.586 742.039 335.189C740.976 343.14 744.443 354.882 744.443 354.882C744.443 354.882 742.178 351.369 736.769 349.751C737.971 353.68 740.513 357.794 747.309 361.123Z" fill="#1E4DC8"/>
<path d="M1238.14 297.792C1238.14 297.792 1262.04 286.327 1262.96 269.131C1253.4 270.102 1236.2 287.298 1236.2 287.298C1236.2 287.298 1244.8 264.369 1228.57 251.01C1226.68 265.34 1232.92 286.558 1232.92 286.558C1232.92 286.558 1228.8 280.225 1219.05 277.313C1221.27 284.339 1225.84 291.782 1238.14 297.792Z" fill="#1E4DC8"/>
<path d="M343.56 327.84C343.56 327.84 353.314 327.193 354.886 318.733C353.314 314.665 347.952 323.449 347.952 323.449C347.952 323.449 346.057 308.378 337.597 302.693C342.312 315.59 345.456 323.449 345.456 323.449C345.456 323.449 338.522 313.371 330.386 312.77C332.882 320.906 343.56 327.84 343.56 327.84Z" fill="#1E4DC8"/>
<path d="M1438.27 270.934C1438.27 270.934 1448.02 270.287 1449.59 261.827C1448.02 257.759 1442.66 266.543 1442.66 266.543C1442.66 266.543 1440.76 251.473 1432.3 245.787C1437.02 258.684 1440.16 266.543 1440.16 266.543C1440.16 266.543 1433.23 256.465 1425.09 255.864C1427.59 264 1438.27 270.934 1438.27 270.934Z" fill="#1E4DC8"/>
<path d="M102.624 278.515L116.539 262.521C111.407 261.504 101.607 273.338 101.607 273.338C101.607 273.338 105.722 262.012 94.9044 248.098C91.2525 261.504 102.624 278.515 102.624 278.515Z" fill="#1E4DC8"/>
<path d="M234.557 224.106V310.459" stroke="#1E4DC8" stroke-width="3.1879" stroke-miterlimit="10" stroke-linecap="round"/>
<path d="M259.982 228.729C259.982 241.765 255.128 247.451 235.62 246.573" stroke="#1E4DC8" stroke-width="3.1879" stroke-miterlimit="10" stroke-linecap="round"/>
<path d="M208.716 246.805C208.716 259.841 213.57 265.527 233.078 264.648" stroke="#1E4DC8" stroke-width="3.1879" stroke-miterlimit="10" stroke-linecap="round"/>
<path d="M1025.74 246.157V332.509" stroke="#1E4DC8" stroke-width="3.1879" stroke-miterlimit="10" stroke-linecap="round"/>
<path d="M1051.16 250.779C1051.16 263.815 1046.31 269.501 1026.8 268.623" stroke="#1E4DC8" stroke-width="3.1879" stroke-miterlimit="10" stroke-linecap="round"/>
<path d="M999.894 268.855C999.894 281.891 1004.75 287.577 1024.26 286.699" stroke="#1E4DC8" stroke-width="3.1879" stroke-miterlimit="10" stroke-linecap="round"/>
<path d="M1848.26 199.652V286.004" stroke="#1E4DC8" stroke-width="3.1879" stroke-miterlimit="10" stroke-linecap="round"/>
<path d="M1873.68 204.275C1873.68 217.311 1868.83 222.997 1849.32 222.118" stroke="#1E4DC8" stroke-width="3.1879" stroke-miterlimit="10" stroke-linecap="round"/>
<path d="M1822.41 222.35C1822.41 235.386 1827.27 241.072 1846.78 240.194" stroke="#1E4DC8" stroke-width="3.1879" stroke-miterlimit="10" stroke-linecap="round"/>
<path d="M111.593 273.569C144.09 258.268 144.09 256.373 174.646 283.138C205.203 309.904 235.759 307.962 235.759 307.962C235.759 307.962 298.813 298.393 348.461 327.054C398.109 355.715 407.678 374.807 476.464 378.644C545.25 382.481 741.993 353.82 787.85 353.82C833.707 353.82 803.151 372.912 854.695 351.924C906.284 330.891 885.251 327.1 975.07 323.264C1064.84 319.427 1196.68 302.23 1311.28 288.871C1425.92 275.511 1450.93 251.611 1607.74 277.915C1664.46 287.438 1732.64 293.031 1799.86 280.134C1834.48 273.477 1875.07 276.759 1919.95 287.345V388.602H0V211.486C41.8356 215.924 83.2553 286.929 111.593 273.569Z" fill="#1E4DC8"/>
<path d="M1714.12 291.567C1726.1 293.126 1772.51 295.897 1781.18 292.046C1796.04 285.447 1798.82 283.187 1803.4 286.706C1804.39 287.466 1805.16 288.342 1806.19 287.306C1807.3 286.192 1806.52 285.925 1808.91 288.138C1809.81 288.975 1810.21 288.381 1811.08 288.004C1811.83 288.669 1813.1 290.112 1813.51 289.04C1814.21 287.244 1813.09 285.26 1812.23 283.288C1814.2 281.599 1813.59 281.996 1811.95 278.412C1808.74 271.44 1808.98 272.55 1811.62 272.351C1811.76 271.876 1811.94 271.508 1811.96 271.122C1812.33 265.931 1813.26 260.942 1809.94 256.565C1807.01 252.699 1808.15 252.173 1806.17 251.211C1797.89 247.166 1790.1 246.29 1788.05 241.904C1787.08 239.843 1776.37 226.712 1775.56 224.728C1773.41 219.502 1769.7 217.64 1763.17 205.542C1762.64 204.556 1760.02 200.354 1758.92 197.473C1753.18 182.483 1741.74 139.857 1737.01 129.511C1731.92 118.361 1728.79 107.076 1718.56 108.689C1714.05 109.398 1706.97 108.635 1703.1 106.176C1699.45 103.863 1695.21 98.8862 1694.78 94.9723C1694.44 91.9581 1694.05 84.7985 1695.14 83.9996C1700.36 80.1867 1700.53 75.5275 1701.66 69.8348C1702.61 64.9943 1702.23 67.0018 1703.79 65.8288C1707.13 63.3225 1708.56 58.2267 1708.44 56.9497C1708.31 55.4353 1707.61 55.263 1705.94 54.1999C1706.86 52.24 1707.85 50.7077 1707.14 48.7923C1705.13 43.3312 1714.18 37.5703 1709.05 28.8516C1706.31 24.1834 1703.09 22.366 1698.63 20.6199C1698.15 20.0141 1698.49 19.2183 1697.82 18.8678C1697.02 18.4521 1697.05 17.7661 1697.11 17.095C1697.35 14.1581 1695.69 12.6377 1693.81 10.4996C1695.1 5.0979 1691.09 5.36515 1687.89 1.39185C1686.75 -0.0246361 1683.87 -0.484916 1681.86 0.598981C1679.85 -0.481946 1676.98 -0.0246361 1675.84 1.39185C1672.63 5.36515 1668.62 5.0979 1669.92 10.4996C1668.03 12.6377 1666.38 14.1611 1666.62 17.095C1666.68 17.7661 1666.71 18.4491 1665.91 18.8678C1665.24 19.2183 1665.57 20.0141 1665.1 20.6199C1660.64 22.366 1657.42 24.1834 1654.68 28.8516C1649.55 37.5703 1658.59 43.3312 1656.58 48.7923C1655.88 50.7077 1656.86 52.24 1657.79 54.1999C1656.12 55.263 1655.42 55.4353 1655.28 56.9497C1655.17 58.2267 1656.6 63.3225 1659.94 65.8288C1661.5 67.0018 1661.12 64.9943 1662.07 69.8348C1663.2 75.5275 1663.36 80.1837 1668.59 83.9996C1669.68 84.7985 1669.29 91.9581 1668.95 94.9723C1668.51 98.8862 1664.28 103.863 1660.63 106.176C1656.75 108.632 1649.68 109.398 1645.17 108.689C1634.94 107.076 1631.81 118.361 1626.72 129.511C1621.99 139.857 1610.54 182.483 1604.81 197.473C1603.71 200.354 1601.09 204.556 1600.56 205.542C1594.03 217.64 1590.32 219.505 1588.17 224.728C1587.36 226.712 1576.65 239.843 1575.68 241.904C1573.63 246.29 1565.84 247.166 1557.56 251.211C1555.58 252.176 1556.71 252.702 1553.79 256.565C1550.47 260.942 1551.4 265.931 1551.77 271.122C1551.79 271.511 1551.97 271.879 1552.11 272.351C1554.75 272.547 1554.99 271.44 1551.78 278.412C1550.14 281.996 1549.53 281.599 1551.5 283.288C1550.64 285.26 1549.52 287.244 1550.22 289.04C1550.63 290.112 1551.9 288.669 1552.65 288.004C1553.52 288.381 1553.92 288.975 1554.82 288.138C1557.21 285.928 1556.43 286.195 1557.54 287.306C1558.57 288.342 1559.34 287.466 1560.33 286.706C1564.91 283.187 1567.69 285.444 1582.55 292.046C1591.22 295.9 1637.63 293.129 1649.61 291.567C1669.54 288.972 1694.19 288.972 1714.12 291.567ZM1731.4 231.231C1730.62 230.988 1729.78 230.961 1729.51 229.871C1728.56 225.955 1726.77 222.228 1726.2 218.216C1725.6 213.925 1717.47 200.315 1715.21 191.08C1712.82 181.372 1720.05 175.813 1719.11 158.471C1718.56 148.448 1718.45 151.35 1718.88 149.134C1720.54 152.154 1721.85 157.194 1722.68 160.538C1728.67 184.452 1724.56 165.369 1736.06 199.662C1737.81 204.873 1739.55 204.909 1744.49 214.165C1753.4 230.887 1761.66 234.213 1766.8 242.056C1763.76 242.673 1760.56 240.321 1731.4 231.231ZM1596.93 242.059C1602.07 234.216 1610.33 230.89 1619.24 214.168C1624.18 204.912 1625.92 204.876 1627.67 199.665C1639.17 165.372 1635.06 184.455 1641.05 160.541C1641.89 157.197 1643.19 152.157 1644.85 149.137C1645.28 151.353 1645.17 148.451 1644.62 158.474C1643.68 175.816 1650.91 181.378 1648.52 191.083C1646.26 200.318 1638.13 213.928 1637.53 218.219C1636.96 222.231 1635.17 225.955 1634.22 229.874C1633.95 230.964 1633.11 230.991 1632.33 231.234C1603.17 240.321 1599.97 242.673 1596.93 242.059ZM1806.82 265.408C1805.1 264.696 1803.89 263.831 1803.06 262.338C1800.28 257.361 1797.86 254.525 1799.62 255.107C1803.41 256.36 1803.29 256.856 1806.55 259.823C1807.76 260.927 1807.32 261.509 1806.82 265.408ZM1557.18 259.826C1560.44 256.859 1560.32 256.363 1564.11 255.11C1565.88 254.528 1563.45 257.364 1560.67 262.341C1559.84 263.834 1558.63 264.699 1556.91 265.411C1556.41 261.509 1555.97 260.927 1557.18 259.826Z" fill="#1E4DC8"/>
</svg>
