<svg width="105" height="178" viewBox="0 0 105 178" fill="none" xmlns="http://www.w3.org/2000/svg">
<path d="M73.6083 4.80865C72.829 6.81924 72.0498 8.82982 71.2957 10.7755C64.0026 28.1304 62.462 47.3306 66.8975 65.59C47.2039 57.9522 25.4533 57.2664 5.28264 63.6473C4.31642 63.9028 3.41616 64.3609 2.64249 64.9908C1.86884 65.6207 1.23977 66.4077 0.797698 67.2988L0.521197 68.0123C-0.0989504 69.6294 -0.126608 71.4105 0.443068 73.0434C4.72712 83.2717 11.2031 92.4468 19.4212 99.9316C27.6394 107.416 37.4029 113.032 48.0339 116.387C31.8787 126.894 19.6075 142.345 13.0848 160.392L10.7722 166.359C10.3889 167.307 10.2204 168.326 10.2787 169.345C10.337 170.364 10.6207 171.357 11.1095 172.254C11.5984 173.15 12.2804 173.928 13.1071 174.533C13.9337 175.137 14.8847 175.553 15.8924 175.75C16.5449 175.999 81.3402 190.986 111.052 114.324L112.761 109.914C142.553 33.4315 84.343 1.45196 83.6905 1.20362C82.8094 0.719201 81.8328 0.429955 80.8277 0.355714C79.8226 0.281473 78.8128 0.423989 77.8675 0.773495C76.9206 1.12605 76.055 1.66537 75.323 2.35889C74.5909 3.05241 74.0076 3.88576 73.6083 4.80865ZM17.7458 75.5357C27.6622 73.236 37.9548 73.0681 47.9331 75.0432C57.9114 77.0184 67.3447 81.0909 75.6003 86.9877C78.8983 92.6555 82.7509 97.9858 87.1024 102.901C81.6262 103.49 76.2094 104.54 70.911 106.042C60.1881 105.74 49.7146 102.794 40.4338 97.4691C31.1529 92.1438 23.3562 84.6063 17.7458 75.5357ZM27.7519 162.923C31.6008 152.859 37.6904 143.785 45.5649 136.381C53.4393 128.977 62.8944 123.434 73.2223 120.169L74.0759 119.899C80.7212 117.877 87.6063 116.743 94.5495 116.528C74.8569 159.418 42.7715 163.579 27.7519 162.923ZM101.874 97.4346C95.9145 91.7969 90.8643 85.2811 86.9004 78.1155L86.6597 77.5773C81.9601 68.5611 79.2585 58.6469 78.736 48.4998C78.2135 38.3527 79.8824 28.2076 83.6305 18.745C95.3973 27.9869 116.357 52.3381 101.874 97.4346Z" fill="#F9CFD0"/>
</svg>
